<svg class="animated" id="freepik_stories-pastry-chef" xmlns="http://www.w3.org/2000/svg" viewBox="0 0 500 500" version="1.1" xmlns:xlink="http://www.w3.org/1999/xlink" xmlns:svgjs="http://svgjs.com/svgjs"><style>svg#freepik_stories-pastry-chef:not(.animated) .animable {opacity: 0;}svg#freepik_stories-pastry-chef.animated #freepik--background-complete--inject-147 {animation: 1s 1 forwards cubic-bezier(.36,-0.01,.5,1.38) fadeIn;animation-delay: 0s;}svg#freepik_stories-pastry-chef.animated #freepik--Character--inject-147 {animation: 1.7s 1 forwards cubic-bezier(.36,-0.01,.5,1.38) slideUp;animation-delay: 0s;}svg#freepik_stories-pastry-chef.animated #freepik--Cake--inject-147 {animation: 1s 1 forwards cubic-bezier(.36,-0.01,.5,1.38) slideDown;animation-delay: 0s;}            @keyframes fadeIn {                0% {                    opacity: 0;                }                100% {                    opacity: 1;                }            }                    @keyframes slideUp {                0% {                    opacity: 0;                    transform: translateY(30px);                }                100% {                    opacity: 1;                    transform: inherit;                }            }                    @keyframes slideDown {                0% {                    opacity: 0;                    transform: translateY(-30px);                }                100% {                    opacity: 1;                    transform: translateY(0);                }            }        </style><g id="freepik--background-complete--inject-147" class="animable animator-active" style="transform-origin: 250px 234.754px;"><path d="M71.36,44.43c43.43-.66,91.71-.65,135.16,0-43.46.65-91.72.67-135.16,0Z" style="fill: rgb(235, 235, 235); transform-origin: 138.94px 44.4319px;" id="el9l42z62o5gs" class="animable"></path><path d="M56.06,62.75c44.74-.67,94.49-.65,139.26,0-44.78.65-94.51.66-139.26,0Z" style="fill: rgb(235, 235, 235); transform-origin: 125.69px 62.7481px;" id="el0rdkp30cz8zc" class="animable"></path><path d="M85.35,44.43a81.33,81.33,0,0,1,0,18.32,81.92,81.92,0,0,1,0-18.32Z" style="fill: rgb(235, 235, 235); transform-origin: 85.3519px 53.59px;" id="elignnas14zkl" class="animable"></path><path d="M153.53,44.43a81.92,81.92,0,0,1,0,18.32,81.33,81.33,0,0,1,0-18.32Z" style="fill: rgb(235, 235, 235); transform-origin: 153.528px 53.59px;" id="elm342nsamdmn" class="animable"></path><path d="M119.44,62.67a81.92,81.92,0,0,1,0,18.32,81.92,81.92,0,0,1,0-18.32Z" style="fill: rgb(235, 235, 235); transform-origin: 119.44px 71.83px;" id="eloza4fx7wl7c" class="animable"></path><path d="M368.78,44.43c21.7-.67,43.56-.67,65.27,0-21.72.67-43.56.67-65.27,0Z" style="fill: rgb(235, 235, 235); transform-origin: 401.415px 44.43px;" id="el4pnqt18pvcm" class="animable"></path><path d="M346.34,62.75c31.59-.67,66.71-.65,98.32,0-31.62.65-66.73.66-98.32,0Z" style="fill: rgb(235, 235, 235); transform-origin: 395.5px 62.7481px;" id="elo7r1pkxe1h" class="animable"></path><path d="M402.86,44.43a81.33,81.33,0,0,1,0,18.32,81.92,81.92,0,0,1,0-18.32Z" style="fill: rgb(235, 235, 235); transform-origin: 402.862px 53.59px;" id="elr6bnpbt0odg" class="animable"></path><path d="M368.78,62.67a81.92,81.92,0,0,1,0,18.32,81.33,81.33,0,0,1,0-18.32Z" style="fill: rgb(235, 235, 235); transform-origin: 368.778px 71.83px;" id="elmw80jvc9yc" class="animable"></path><path d="M118.62,389c43.42-.67,91.7-.65,135.16,0-43.47.65-91.73.66-135.16,0Z" style="fill: rgb(235, 235, 235); transform-origin: 186.2px 388.998px;" id="elh03k55xzyhk" class="animable"></path><path d="M86.21,407.34c44.74-.66,94.49-.65,139.26,0-44.78.65-94.51.67-139.26,0Z" style="fill: rgb(235, 235, 235); transform-origin: 155.84px 407.342px;" id="elga1xzfwwecf" class="animable"></path><path d="M248.36,370.84c27.91-.66,58.8-.66,86.72,0-27.92.66-58.8.66-86.72,0Z" style="fill: rgb(235, 235, 235); transform-origin: 291.72px 370.84px;" id="el72ofwzigtjn" class="animable"></path><path d="M279.05,389c27.91-.66,58.79-.66,86.71,0-27.92.66-58.8.65-86.71,0Z" style="fill: rgb(235, 235, 235); transform-origin: 322.405px 388.998px;" id="el5gcn3c6fvvd" class="animable"></path><path d="M153.56,389a81.83,81.83,0,0,1,0,18.31,81.24,81.24,0,0,1,0-18.31Z" style="fill: rgb(235, 235, 235); transform-origin: 153.558px 398.155px;" id="elgxdr1am4zs5" class="animable"></path><path d="M221.76,389a81.83,81.83,0,0,1,0,18.31,81.24,81.24,0,0,1,0-18.31Z" style="fill: rgb(235, 235, 235); transform-origin: 221.758px 398.155px;" id="elkr1wjqzm90l" class="animable"></path><path d="M290,389a81.83,81.83,0,0,1,0,18.31A81.24,81.24,0,0,1,290,389Z" style="fill: rgb(235, 235, 235); transform-origin: 289.998px 398.155px;" id="elljued2uqxr" class="animable"></path><path d="M358.16,389a81.83,81.83,0,0,1,0,18.31,81.24,81.24,0,0,1,0-18.31Z" style="fill: rgb(235, 235, 235); transform-origin: 358.158px 398.155px;" id="elad5ziqh1mck" class="animable"></path><path d="M119.44,407.26a81.92,81.92,0,0,1,0,18.32,81.92,81.92,0,0,1,0-18.32Z" style="fill: rgb(235, 235, 235); transform-origin: 119.44px 416.42px;" id="el63sbgqjd1ux" class="animable"></path><path d="M187.75,407.26a81.33,81.33,0,0,1,0,18.32,81.92,81.92,0,0,1,0-18.32Z" style="fill: rgb(235, 235, 235); transform-origin: 187.752px 416.42px;" id="el7i852d7tju6" class="animable"></path><path d="M324.38,370.33a81.83,81.83,0,0,1,0,18.31,80.66,80.66,0,0,1,0-18.31Z" style="fill: rgb(235, 235, 235); transform-origin: 324.376px 379.485px;" id="elto2fdufz12m" class="animable"></path><path d="M248.36,213.07c27.91-.66,58.8-.66,86.72,0-27.92.66-58.8.66-86.72,0Z" style="fill: rgb(235, 235, 235); transform-origin: 291.72px 213.07px;" id="el6x9nxhwraq" class="animable"></path><path d="M279.05,231.26c27.91-.66,58.79-.66,86.71,0-27.92.66-58.8.66-86.71,0Z" style="fill: rgb(235, 235, 235); transform-origin: 322.405px 231.26px;" id="elo2kqcssjg6q" class="animable"></path><path d="M290,231.26a81.92,81.92,0,0,1,0,18.32,81.33,81.33,0,0,1,0-18.32Z" style="fill: rgb(235, 235, 235); transform-origin: 289.998px 240.42px;" id="elj3t0t4lkjws" class="animable"></path><path d="M358.16,231.26a81.92,81.92,0,0,1,0,18.32,81.33,81.33,0,0,1,0-18.32Z" style="fill: rgb(235, 235, 235); transform-origin: 358.158px 240.42px;" id="el7qkxtz0iie" class="animable"></path><path d="M324.38,212.56a81.92,81.92,0,0,1,0,18.32,80.75,80.75,0,0,1,0-18.32Z" style="fill: rgb(235, 235, 235); transform-origin: 324.376px 221.72px;" id="eluy8csfe9pn" class="animable"></path><path d="M124.37,141.73c44.75-.66,94.49-.65,139.26,0-44.78.65-94.5.66-139.26,0Z" style="fill: rgb(235, 235, 235); transform-origin: 194px 141.73px;" id="elocniomb5m2" class="animable"></path><path d="M172.58,160c30.07-.66,63.51-.64,93.6,0-30.1.65-63.52.67-93.6,0Z" style="fill: rgb(235, 235, 235); transform-origin: 219.38px 160.004px;" id="el0nltlilvhgnr" class="animable"></path><path d="M221.84,123.42a81.83,81.83,0,0,1,0,18.31,81.24,81.24,0,0,1,0-18.31Z" style="fill: rgb(235, 235, 235); transform-origin: 221.838px 132.575px;" id="elj1pn5tqk6t" class="animable"></path><path d="M187.75,141.73a81.24,81.24,0,0,1,0,18.31,81.83,81.83,0,0,1,0-18.31Z" style="fill: rgb(235, 235, 235); transform-origin: 187.752px 150.885px;" id="elk3vzc6nuzc" class="animable"></path><path d="M345.94,141.73c31.85-.66,67.25-.65,99.12,0-31.88.65-67.27.66-99.12,0Z" style="fill: rgb(235, 235, 235); transform-origin: 395.5px 141.73px;" id="elqqqu7rvix1" class="animable"></path><path d="M354,160c23.33-.67,46.81-.67,70.15,0-23.34.68-46.82.68-70.15,0Z" style="fill: rgb(235, 235, 235); transform-origin: 389.075px 160.004px;" id="elvl0nz3j8p5j" class="animable"></path><path d="M403.26,159.84a81.83,81.83,0,0,1,0,18.31,81.24,81.24,0,0,1,0-18.31Z" style="fill: rgb(235, 235, 235); transform-origin: 403.258px 168.995px;" id="elo57njl9d29i" class="animable"></path><path d="M369.17,141.73a81.24,81.24,0,0,1,0,18.31,81.83,81.83,0,0,1,0-18.31Z" style="fill: rgb(235, 235, 235); transform-origin: 369.172px 150.885px;" id="elxlhn87gysw" class="animable"></path><path d="M255.92,141.73a81.24,81.24,0,0,1,0,18.31,81.83,81.83,0,0,1,0-18.31Z" style="fill: rgb(235, 235, 235); transform-origin: 255.922px 150.885px;" id="elpvc2f6oltm" class="animable"></path><path d="M103.34,213.05c19.26-.67,38.66-.67,57.93,0-19.27.68-38.67.68-57.93,0Z" style="fill: rgb(235, 235, 235); transform-origin: 132.305px 213.054px;" id="elxgup3wwlp2o" class="animable"></path><path d="M89.79,231.37c30.07-.67,63.5-.65,93.59,0-30.1.65-63.52.66-93.59,0Z" style="fill: rgb(235, 235, 235); transform-origin: 136.585px 231.368px;" id="el8apgayfsky" class="animable"></path><path d="M119.47,194.74a81.83,81.83,0,0,1,0,18.31,81.83,81.83,0,0,1,0-18.31Z" style="fill: rgb(235, 235, 235); transform-origin: 119.47px 203.895px;" id="elyn5x1h99xg9" class="animable"></path><path d="M153.56,213.05a81.92,81.92,0,0,1,0,18.32,81.33,81.33,0,0,1,0-18.32Z" style="fill: rgb(235, 235, 235); transform-origin: 153.558px 222.21px;" id="el4lr9a01dhmq" class="animable"></path><polygon points="55.33 192 444.67 192 450.92 46.31 49.08 46.31 55.33 192" style="fill: rgb(235, 235, 235); transform-origin: 250px 119.155px;" id="elz5hcfe1y6w" class="animable"></polygon><path d="M148.33,178.62H69.77L64.66,60.4h83.67Zm-77.41-1.19h76.22V61.6H65.9Z" style="fill: rgb(219, 219, 219); transform-origin: 106.495px 119.51px;" id="elxncnb47yz5k" class="animable"></path><path d="M141.25,139.49h-8.17V96.84h8.17Zm-7-1.19h5.77V98h-5.77Z" style="fill: rgb(219, 219, 219); transform-origin: 137.165px 118.165px;" id="elgwxte28xthd" class="animable"></path><path d="M235.15,178.62H156.59V60.4h83.68Zm-77.36-1.19H234L239,61.6H157.79Z" style="fill: rgb(219, 219, 219); transform-origin: 198.43px 119.51px;" id="elxy7u8alzkt" class="animable"></path><path d="M171.84,139.49h-8.16V96.84h8.16Zm-7-1.19h5.78V98h-5.78Z" style="fill: rgb(219, 219, 219); transform-origin: 167.76px 118.165px;" id="elrnr6l0z6efa" class="animable"></path><path d="M339.6,178.62H261L255.92,60.4H339.6Zm-77.42-1.19H338.4V61.6H257.17Z" style="fill: rgb(219, 219, 219); transform-origin: 297.76px 119.51px;" id="elhoifgpie4dt" class="animable"></path><path d="M332.51,139.49h-8.16V96.84h8.16Zm-7-1.19h5.78V98h-5.78Z" style="fill: rgb(219, 219, 219); transform-origin: 328.43px 118.165px;" id="elxugjpq4we2" class="animable"></path><path d="M426.42,178.62H347.86V60.4h83.67Zm-77.37-1.19h76.22l5-115.83H349.05Z" style="fill: rgb(219, 219, 219); transform-origin: 389.695px 119.51px;" id="elcybq7dlgdpn" class="animable"></path><path d="M363.1,139.49h-8.16V96.84h8.16Zm-7-1.19h5.77V98h-5.77Z" style="fill: rgb(219, 219, 219); transform-origin: 359.02px 118.165px;" id="elpasm5qd0h6b" class="animable"></path><rect x="311.78" y="210.73" width="139.13" height="12.54" style="fill: rgb(199, 199, 199); transform-origin: 381.345px 217px;" id="elfu9qwlfp6jd" class="animable"></rect><rect x="378.93" y="245.96" width="4.84" height="61.18" style="fill: rgb(235, 235, 235); transform-origin: 381.35px 276.55px;" id="elk45frs72zn8" class="animable"></rect><path d="M394.45,304.47h-26.2L366.91,341h28.88Zm-18.59,32.28h-2.72V309.69h2.72Zm6.84,0H380V309.69h2.7Zm6.85,0h-2.71V309.69h2.71Z" style="fill: rgb(235, 235, 235); transform-origin: 381.35px 322.735px;" id="elyfkzjj73x9e" class="animable"></path><polygon points="386.58 251.98 376.42 251.98 375.4 214.08 387.6 214.08 386.58 251.98" style="fill: rgb(166, 166, 166); transform-origin: 381.5px 233.03px;" id="elbd3tu3jawt" class="animable"></polygon><circle cx="381.5" cy="219.02" r="1.65" style="fill: rgb(255, 255, 255); transform-origin: 381.5px 219.02px;" id="ellhv080cu7x8" class="animable"></circle><rect x="418.2" y="245.96" width="4.84" height="49.23" style="fill: rgb(235, 235, 235); transform-origin: 420.62px 270.575px;" id="elzlwpudw6flr" class="animable"></rect><path d="M434.48,309.43c0,10.27-6.69,19.72-13.86,19.72s-13.87-9.45-13.87-19.72,8.21-15.37,13.87-15.37S434.48,299.15,434.48,309.43Z" style="fill: rgb(235, 235, 235); transform-origin: 420.615px 311.605px;" id="el11lwumfurjid" class="animable"></path><polygon points="425.85 251.98 415.69 251.98 414.67 214.08 426.87 214.08 425.85 251.98" style="fill: rgb(166, 166, 166); transform-origin: 420.77px 233.03px;" id="eltq9yhhq3asj" class="animable"></polygon><circle cx="420.77" cy="219.02" r="1.65" style="fill: rgb(255, 255, 255); transform-origin: 420.77px 219.02px;" id="el2fsvp3js93l" class="animable"></circle><path d="M311.69,267v60.15h36.77V245.8h-7.63V267Zm5.2,8.35a2.19,2.19,0,1,1,2.19,2.18A2.2,2.2,0,0,1,316.89,275.31Z" style="fill: rgb(235, 235, 235); transform-origin: 330.075px 286.475px;" id="el7rrebr3ifs8" class="animable"></path><polygon points="339.57 251.98 349.73 251.98 350.75 214.08 338.55 214.08 339.57 251.98" style="fill: rgb(166, 166, 166); transform-origin: 344.65px 233.03px;" id="elo4ychh9jrgi" class="animable"></polygon><path d="M343,219a1.66,1.66,0,1,0,1.65-1.65A1.65,1.65,0,0,0,343,219Z" style="fill: rgb(255, 255, 255); transform-origin: 344.66px 219.01px;" id="elir28ksnk3a" class="animable"></path><rect x="49.17" y="271.09" width="139.13" height="12.54" style="fill: rgb(199, 199, 199); transform-origin: 118.735px 277.36px;" id="el80k40ezrdlq" class="animable"></rect><g id="el155kaqz7znu"><rect x="111.09" y="207.43" width="49.69" height="77.68" style="fill: rgb(235, 235, 235); transform-origin: 135.935px 246.27px; transform: rotate(-90deg);" class="animable"></rect></g><path d="M195.36,239.63c-3.87,0-7.45,3.32-11.07,3.32h-9.52v6.64h9.52c3.62,0,7.2,3.33,11.07,3.33,4.58,0,8-2.55,8-6.64S199.94,239.63,195.36,239.63Zm1,9.13a2.49,2.49,0,1,1,2.49-2.48A2.5,2.5,0,0,1,196.41,248.76Z" style="fill: rgb(235, 235, 235); transform-origin: 189.065px 246.275px;" id="elix833vpgpql" class="animable"></path><path d="M118,247s-10.23,19.13-12.22,21.73S99,271.11,96,271.11H71.57c-3,0-7.82.22-9.81-2.39S49.54,247,49.54,247Z" style="fill: rgb(166, 166, 166); transform-origin: 83.77px 259.057px;" id="elicbc7lq9re" class="animable"></path></g><g id="freepik--Table--inject-147" class="animable" style="transform-origin: 250px 466px;"><path d="M49.08,466c128.72-.61,273.12-.62,401.84,0-128.72.62-273.12.61-401.84,0Z" style="fill: rgb(38, 50, 56); transform-origin: 250px 466px;" id="elqnre1yokcj" class="animable"></path></g><g id="freepik--Character--inject-147" class="animable" style="transform-origin: 250.02px 260.02px;"><path d="M147.62,374a1.45,1.45,0,0,0,0,.16s0,.07,0,.12a2.73,2.73,0,0,0,.06.31l0,.2a4.12,4.12,0,0,1,.08.45l.06.32c0,.23.08.49.14.76.08.44.17.93.26,1.48.15.82.32,1.75.52,2.81,0,.3.11.62.17.95s.16.9.25,1.37.19,1.06.29,1.62a0,0,0,0,1,0,0c.07.39.15.8.22,1.21.22,1.23.45,2.54.71,3.94a.43.43,0,0,1,0,.11c.28,1.56.58,3.24.9,5q.12.69.27,1.38c.09.49.18,1,.26,1.45,0,0,0,0,0,0,0,.29.1.6.17.91v0q.66,3.66,1.42,7.77c.17.91.33,1.85.5,2.79.33,1.84.68,3.72,1,5.66.09.45.17.9.24,1.36l1.59,8.78c.07.31.12.62.18.93.26,1.42.52,2.86.78,4.33a2.17,2.17,0,0,1,.07.35c.12.68.25,1.39.38,2.09q.75,4.2,1.56,8.6c.14.73.27,1.46.4,2.21.27,1.48.54,3,.82,4.48.34,1.87.69,3.76,1,5.68s.69,3.84,1,5.78c.18,1,.35,1.95.54,2.93.2,1.17.42,2.34.63,3.53h99.19C251.27,415,240.94,374,240.94,374Z" style="fill: rgb(38, 50, 56); transform-origin: 205.449px 419.91px;" id="eloy36h0iyw5" class="animable"></path><path d="M162.63,385.43q7.45,40.23,15.07,80.45h1.38C173.81,439,168.37,412.17,163,385.32,162.92,385.11,162.59,385.21,162.63,385.43Z" style="fill: rgb(55, 71, 79); transform-origin: 170.853px 425.542px;" id="elqugd8eengqn" class="animable"></path><path d="M147.63,374l0,.16s0,.07,0,.12,0,.18.06.31l0,.2a4.12,4.12,0,0,1,.08.45l.06.32c0,.23.09.49.14.76.08.44.17.93.26,1.48.16.82.32,1.75.52,2.81,0,.3.11.62.17.95s.16.9.25,1.37.19,1.06.29,1.62a0,0,0,0,1,0,0c.07.39.15.8.22,1.21.23,1.23.46,2.54.71,3.94a.43.43,0,0,1,0,.11c.29,1.56.59,3.21.91,5,.09.46.18.93.26,1.4s.18,1,.26,1.45c0,0,0,0,0,0,.07.29.11.6.17.91v0c.45,2.43.92,5,1.42,7.77.17.91.33,1.85.5,2.79.35,1.84.69,3.72,1,5.66.09.45.17.9.24,1.36.53,2.83,1,5.76,1.59,8.78.07.31.12.62.18.93.26,1.42.52,2.86.78,4.33a2.17,2.17,0,0,1,.07.35c.12.68.25,1.39.38,2.09q.76,4.2,1.56,8.6c.14.73.27,1.46.4,2.21.28,1.48.54,3,.82,4.48.34,1.87.69,3.76,1,5.68s.7,3.84,1,5.78c.18,1,.35,1.95.54,2.93.2,1.17.42,2.34.64,3.53h49.72l4-40.82.14-1.45.16-1.56h0l.78-8h0l.68-6.92L223.05,374Z" style="fill: rgb(55, 71, 79); transform-origin: 185.34px 419.92px;" id="el56780b2rjv6" class="animable"></path><path d="M91.2,465.88H198.31c.18-9.86.38-19.4.62-28.4h0c0-.22,0-.44,0-.66,0,0,12.5-7.4,19.24-13.2a23.84,23.84,0,0,0,3.15-3.12s0,0,0,0h0C225.67,415,230,393.84,238.93,374h-131C86.6,415.38,88.1,448.54,91.2,465.88Z" style="fill: rgb(38, 50, 56); transform-origin: 164.17px 419.94px;" id="elu68jfz1pyik" class="animable"></path><path d="M224.43,419.07c-6.37,2.61-12.1,6.62-17.76,10.49-5.87,4-11.26,8.66-16.92,13-.21.16,0,.52.23.37,6-3.81,12.2-7.15,18.1-11.07,5.72-3.81,11.67-7.51,16.64-12.29C224.92,419.35,224.7,419,224.43,419.07Z" style="fill: rgb(55, 71, 79); transform-origin: 207.23px 431.013px;" id="elbp0xr2g03xt" class="animable"></path><path d="M225.24,382.23c-.76,4.08-1.75,8.11-2.63,12.17-.83,3.8-1.43,7.68-2.44,11.44a19.49,19.49,0,0,1-5.33,9.59c-1.49,1.39-3.14,2.62-4.73,3.89-.86.68-1.78,1.34-2.67,2q.17-.81.3-1.65c.27-1.54.54-3.09.8-4.64q.86-5.15,1.65-10.32c1-6.76,2-13.6,3.4-20.3a.22.22,0,0,0-.42-.11c-1.69,6.64-3.55,13.21-5,19.9-.72,3.29-3.29,19.5-3.4,20.65s-.22,2.37-.26,3.56a14.31,14.31,0,0,0,0,3.64c.07.3.43.25.56.05h0a14.12,14.12,0,0,0,1-3.52c.3-1.16.56-2.33.77-3.51.08-.42.14-.86.2-1.29,1.59-1,3.08-2.26,4.57-3.34s3.25-2.3,4.77-3.58a18.25,18.25,0,0,0,5.83-9.1,67.26,67.26,0,0,0,1.91-11.65c.51-4.61.89-9.24,1.53-13.83C225.7,382.06,225.29,382,225.24,382.23Z" style="fill: rgb(55, 71, 79); transform-origin: 215.024px 407.173px;" id="el65q81js23uf" class="animable"></path><path d="M116.25,410.63c1.71-.89,8.33.69,20.39-1.37a13.78,13.78,0,0,0,6.5-2.64c3.14-2.57,5.52-6.69,7.42-10.22a52.74,52.74,0,0,0,5.2-12.61c.06-.26.44-.14.39.12-.44,2.5-.69,5-1.35,7.46a47,47,0,0,1-2.49,6.77c-1.82,4.09-3.95,8.48-7.62,11.24-3.85,2.9-9.22,3.44-13.88,3.77-2.7.19-13.28-.1-14.7-1.61A.59.59,0,0,1,116.25,410.63Z" style="fill: rgb(55, 71, 79); transform-origin: 136.055px 398.423px;" id="elo93ieb6ivy" class="animable"></path><path d="M218,242.24c2.69,11.16,26.31,87.16,40.82,100.57,14.85,13.73,100.37-5.52,117.58-7.78,8.08-1.07,2.86-68.32-16.2-64.24-19.45,4.16-63.51,19.74-74.38,18.31-5.1-.67-29.45-40.58-49.67-64.33C214.46,199.26,213.49,223.35,218,242.24Z" style="fill: rgb(235, 148, 129); transform-origin: 297.949px 280.711px;" id="elxaqgb40c8w" class="animable"></path><g id="elmtje1kk2vvd"><g style="opacity: 0.1; transform-origin: 297.949px 280.711px;" class="animable"><path d="M218,242.24c2.69,11.16,26.31,87.16,40.82,100.57,14.85,13.73,100.37-5.52,117.58-7.78,8.08-1.07,2.86-68.32-16.2-64.24-19.45,4.16-63.51,19.74-74.38,18.31-5.1-.67-29.45-40.58-49.67-64.33C214.46,199.26,213.49,223.35,218,242.24Z" id="eltvrbzlll7e" class="animable" style="transform-origin: 297.949px 280.711px;"></path></g></g><path d="M332.1,340.76c-7.66-1.61-16.62-50.19-11.33-56.24,1-1.13,2.49-2.75,5.53-6.67v0s11.11-14,16.2-29c4.3-12.57,9.25-31.73,16.09-29.67,10,3,6.65,28,3.86,42.17,7.48-2.48,14.15-3.9,18.34-3.31,13.91,2,13,65.22.7,72.5C369.63,337.52,339.76,342.36,332.1,340.76Z" style="fill: rgb(235, 148, 129); transform-origin: 355.074px 280.047px;" id="elclie5ajsiqr" class="animable"></path><g id="eljjvhog3p93"><g style="opacity: 0.1; transform-origin: 355.074px 280.047px;" class="animable"><path d="M332.1,340.76c-7.66-1.61-16.62-50.19-11.33-56.24,1-1.13,2.49-2.75,5.53-6.67v0s11.11-14,16.2-29c4.3-12.57,9.25-31.73,16.09-29.67,10,3,6.65,28,3.86,42.17,7.48-2.48,14.15-3.9,18.34-3.31,13.91,2,13,65.22.7,72.5C369.63,337.52,339.76,342.36,332.1,340.76Z" id="el0znah12t71kr" class="animable" style="transform-origin: 355.074px 280.047px;"></path></g></g><path d="M370.6,361.51s-69.17-116-72.22-134.33c-1.26-7.62,13.33-27.84,13.33-27.84l25.34-8.43s18.06,3.66,25.91,11.9,18.41,154.91,18.41,154.91Z" style="fill: rgb(255, 255, 255); transform-origin: 339.836px 276.21px;" id="elg576jz4id0l" class="animable"></path><path d="M370.6,361.51c-23.37-39.6-47.18-79.09-67.28-120.48a109,109,0,0,1-4.39-10.66,11.44,11.44,0,0,1-.8-5.77c1.1-5.72,4.14-10.82,7-15.81q3-5,6.36-9.74c.05-.1,25.36-8.41,25.44-8.49a65.69,65.69,0,0,1,21.78,8.38,25.57,25.57,0,0,1,4.54,3.71c1.24,1.65,1.63,3.57,2.2,5.48,1,3.75,1.67,7.56,2.32,11.36,6.92,45.8,10.16,92.06,13.65,138.22,0,.08-10.79,3.75-10.82,3.8Zm0,0s10.91-3.93,10.73-3.79c-3.89-46.1-7.12-92.37-14.17-138.12-.66-3.8-1.36-7.59-2.34-11.3a16.36,16.36,0,0,0-2.06-5.21c-6.63-6.67-17.44-9.73-25.6-11.83l-25.34,8.41c-1.42,2.32-4.38,6.41-6.11,9.47a78.88,78.88,0,0,0-5.29,10.15c-1.54,3.52-2.51,7.18-.91,10.89,3.84,10.81,9.37,21,14.58,31.18,17.91,33.89,37.16,67.06,56.51,100.15Z" style="fill: rgb(38, 50, 56); transform-origin: 339.734px 276.035px;" id="elts78722fnp" class="animable"></path><path d="M368,352.36s-61.6-103.31-64.31-119.62C302.55,226,354.2,203.69,361.19,211s16.4,138,16.4,138Z" style="fill: rgb(189, 50, 212); transform-origin: 340.631px 280.954px;" id="eljyef53j2ysb" class="animable"></path><path d="M311.71,199.34s-32,2.18-32.56-1.78,10.61-6.33,11-10.75-5.74-7.25-3.21-11.19,13.21.43,15-.63-4.13-8.77.91-11.43,13.08,8.56,17.28,7.3,6.51-14.32,11.89-14.68,5.4,11.19,9.18,11.49,7.28-5.54,11.8-2.33-15.88,25.57-15.88,25.57Z" style="fill: rgb(255, 255, 255); transform-origin: 316.392px 178.055px;" id="elb4yj3ud6crf" class="animable"></path><path d="M311.71,199.34c-5.22.19-30.5,2.22-32.64-1.65-.53-3.78,8-6.11,10.06-9.07,3.58-4.62-5.76-8.73-2.2-13.38,2.2-2.31,5.83-1.44,8.61-1.13a34.89,34.89,0,0,0,5.75.76c1.62.14-.35-3.88-.45-4.85-.52-1.9-.87-4.27.64-5.86,4.61-4.46,11.48,3.9,15.64,5.75a4.64,4.64,0,0,0,2.58.65,3.71,3.71,0,0,0,2.12-1.53,31.66,31.66,0,0,0,2.93-5c1.77-3.07,3.66-8.49,8-8.11,4.07,1,4.51,6.61,6.34,9.68,1,2.15,2.66,2.17,4.6,1.22,2.49-1.18,5.38-3.65,8.33-2.22a4.52,4.52,0,0,1,1.3.84,2.11,2.11,0,0,1,.45,1.51,13.91,13.91,0,0,1-2.18,5.5c-4.11,6.71-9.27,12.67-14.48,18.52,0,.07-25.4,8.33-25.41,8.37Zm0,0s25.47-8.57,25.27-8.5c3.27-3.81,18.63-20.86,16-25.14-2.93-2.6-6.29.07-9.13,1.55-2.19,1.1-4.08.95-5.25-1.4-1.93-3.21-3.19-11.89-8.52-8.65-3.79,3.19-4.75,8.43-7.75,12.28-1.48,2.06-3.44,2.31-5.59,1.09-4.31-2.18-7.63-6.7-12.48-7.1a3.52,3.52,0,0,0-3.32,3.59c-.09,2.47,1.27,4.7,1.49,7.15,0,2-3,1-4.13.9-3.61-.5-12-3-11.8,3,.58,2.87,3.46,4.86,3.72,7.89a3.74,3.74,0,0,1-.89,2.85c-2.71,3-6.82,4-9.48,6.87-.55.66-1,1.82-.22,2.44,2.54,1.4,5.69,1.31,8.54,1.58a230.19,230.19,0,0,0,23.49-.38Z" style="fill: rgb(38, 50, 56); transform-origin: 316.413px 177.971px;" id="elgl1ugx20azj" class="animable"></path><polygon points="341.52 313.33 378.88 301.44 383.34 362.1 380.6 363.13 376.71 359.14 376.72 364.16 372.51 366.04 341.52 313.33" style="fill: rgb(199, 199, 199); transform-origin: 362.43px 333.74px;" id="elw1ig3agk84" class="animable"></polygon><path d="M316.16,198.13c-1.37,2.07-2.88,4-4.16,6.16a41.43,41.43,0,0,0-3.22,6.55,28.73,28.73,0,0,0-1.65,14.65,21.75,21.75,0,0,0,2.65,7.84.1.1,0,0,0,.17-.09A24.54,24.54,0,0,1,308.17,219a52.56,52.56,0,0,1,4.35-13.44,58.06,58.06,0,0,1,3.8-7.3A.09.09,0,0,0,316.16,198.13Z" style="fill: rgb(166, 166, 166); transform-origin: 311.581px 215.727px;" id="elefyj0yviokv" class="animable"></path><path d="M318.87,197c-.29,1.14-.78,2.23-1.06,3.39a28.08,28.08,0,0,0-.58,3.4,30.55,30.55,0,0,0,.15,6.76,48.07,48.07,0,0,0,3.7,13.24s.1,0,.08,0a38.36,38.36,0,0,1-2.77-13.29c-.07-2.2,0-4.41.13-6.61.06-1.06.12-2.11.2-3.16a27.36,27.36,0,0,1,.33-3.63A.09.09,0,0,0,318.87,197Z" style="fill: rgb(166, 166, 166); transform-origin: 319.136px 210.369px;" id="el9kjdrtcnp2g" class="animable"></path><path d="M340.16,211.4a44,44,0,0,0-3.36-7.27,27.33,27.33,0,0,0-4.54-5.57,21.55,21.55,0,0,0-5.73-4.17c-.1,0-.15.11-.07.17a32.66,32.66,0,0,1,5.25,4.86,54.72,54.72,0,0,1,4,5.86,109.34,109.34,0,0,1,7,14.35c0,.09.2,0,.17-.07C342.09,216.81,341.16,214.09,340.16,211.4Z" style="fill: rgb(166, 166, 166); transform-origin: 334.652px 207.029px;" id="elquknsgpkzk" class="animable"></path><path d="M348.46,204.72c-1.33-1.68-2.67-3.37-4-5.07-1.17-1.52-2.35-3.24-4.09-4.15a19.87,19.87,0,0,0-5.5-1.66,28.92,28.92,0,0,0-5.94-.67.09.09,0,0,0,0,.18c3.66.91,7.44,1.68,10.85,3.36a15.5,15.5,0,0,1,4.26,3.56c1.45,1.52,2.88,3,4.3,4.58C348.41,204.94,348.54,204.81,348.46,204.72Z" style="fill: rgb(166, 166, 166); transform-origin: 338.663px 199.025px;" id="elvvgzwtfwz0k" class="animable"></path><path d="M316,196.23a85.32,85.32,0,0,0-10.83-.88c-1.79,0-3.57.1-5.35.17s-3.67.08-5.5.16a.13.13,0,0,0,0,.26c1.82.14,3.65.22,5.47.38s3.64.39,5.48.42a90,90,0,0,0,10.76-.32C316.17,196.41,316.13,196.25,316,196.23Z" style="fill: rgb(166, 166, 166); transform-origin: 305.154px 196.065px;" id="elaignfdepapt" class="animable"></path><path d="M316.75,194.91A21.72,21.72,0,0,0,315,193.5a30.46,30.46,0,0,0-4-2.38,42.4,42.4,0,0,0-8.72-2.93c-.17,0-.26.22-.08.27a42.33,42.33,0,0,1,7.84,3.35c1.21.63,2.4,1.29,3.58,2l1.85,1.1c.16.09,1.27.86,1.7,1,0,0,0,.05,0,.07a.38.38,0,0,0,.24.11.13.13,0,0,0,.12-.09C317.65,195.54,317.08,195.21,316.75,194.91Z" style="fill: rgb(166, 166, 166); transform-origin: 309.824px 192.14px;" id="elgpawik0fxbs" class="animable"></path><path d="M324.26,183.4a59.64,59.64,0,0,1-.05-9.82c0-.09-.14-.11-.16,0a46.72,46.72,0,0,0-.77,10.23,28.71,28.71,0,0,0,.46,5.07,18.1,18.1,0,0,0,.64,2.51,8.73,8.73,0,0,0,.43,1c.19.38.46.6.67,1a.1.1,0,0,0,.18-.07c-.09-.36-.06-.77-.15-1.14s-.19-.84-.29-1.26c-.2-.8-.36-1.6-.49-2.41A48.19,48.19,0,0,1,324.26,183.4Z" style="fill: rgb(166, 166, 166); transform-origin: 324.456px 183.468px;" id="elnn4mfmu863" class="animable"></path><path d="M335.74,177.94c-4.16,4.33-7.56,9.52-8.81,15.45,0,.1.12.19.17.08,2.58-5.32,5.24-10.64,8.89-15.33C336.1,178,335.87,177.81,335.74,177.94Z" style="fill: rgb(166, 166, 166); transform-origin: 331.474px 185.708px;" id="elo4z93q1t9k" class="animable"></path><path d="M337.81,182a33.51,33.51,0,0,0-5,4.63,39.81,39.81,0,0,0-3.85,5.46.09.09,0,0,0,.16.1,45.34,45.34,0,0,1,4.26-5.22,57.42,57.42,0,0,1,4.74-4.62C338.39,182.17,338.06,181.84,337.81,182Z" style="fill: rgb(166, 166, 166); transform-origin: 333.583px 187.096px;" id="el10habsojo3bf" class="animable"></path><path d="M358.75,259.25c-3.46,6.43,6.1,6.83,6.1,6.83S351,268.83,350,276.84c-.95,7.72,10.62,7.79,11.45,7.81-.74.15-13.44,3-13.62,11.16-.17,8.48,11.45,6.55,12.2,6.42-.65.36-9.14,5.28-7.86,11.51,2.2,10.69,24.24-1.29,32.61,1.58,0,0-3.24,14.73-3.24,15.17,0,0,21.21-11,24.44-22.46a7.64,7.64,0,0,0-3.61-8.85s7.23-2.78,7.57-9.19c.17-3.3-4.95-6.49-4.95-6.49s5.69-2.47,5.64-8.2c0-4.57-5.16-7.06-5.16-7.06s4.37-4.91,2.83-9.57C405.16,249.27,366.17,245.48,358.75,259.25Z" style="fill: rgb(235, 148, 129); transform-origin: 379.229px 290.36px;" id="elpsv361rx7be" class="animable"></path><g id="elmh7n332zho"><path d="M358.75,259.25c-3.46,6.43,6.1,6.83,6.1,6.83S351,268.83,350,276.84c-.95,7.72,10.62,7.79,11.45,7.81-.74.15-13.44,3-13.62,11.16-.17,8.48,11.45,6.55,12.2,6.42-.65.36-9.14,5.28-7.86,11.51,2.2,10.69,24.24-1.29,32.61,1.58,0,0-3.24,14.73-3.24,15.17,0,0,21.21-11,24.44-22.46a7.64,7.64,0,0,0-3.61-8.85s7.23-2.78,7.57-9.19c.17-3.3-4.95-6.49-4.95-6.49s5.69-2.47,5.64-8.2c0-4.57-5.16-7.06-5.16-7.06s4.37-4.91,2.83-9.57C405.16,249.27,366.17,245.48,358.75,259.25Z" style="opacity: 0.1; transform-origin: 379.229px 290.36px;" class="animable"></path></g><path d="M404.68,267.72a.1.1,0,0,0,.06-.2c-12.52-4.37-27.62-5.34-40.4-1.52-.42.13-.4.86.09.81C378.36,265.39,390.83,265.24,404.68,267.72Z" style="fill: rgb(38, 50, 56); transform-origin: 384.428px 265.671px;" id="el70takbxdsty" class="animable"></path><path d="M405.15,283.44c.15,0,.2-.22,0-.28-12.92-4.44-30-5.06-44.17,1.08-.49.21-.72.89-.14.69C370.64,281.56,392.69,281.14,405.15,283.44Z" style="fill: rgb(38, 50, 56); transform-origin: 382.889px 282.348px;" id="elnt7yfhgkual" class="animable"></path><path d="M359.15,303c13.85-5.36,28-5.74,42.66-4,.19,0,.2-.25.05-.31-6.93-2.78-16.36-2.89-23.71-2.36A39.11,39.11,0,0,0,359,302.52C358.73,302.67,358.85,303.12,359.15,303Z" style="fill: rgb(38, 50, 56); transform-origin: 380.407px 299.55px;" id="elii1ikp9hqs" class="animable"></path><path d="M364.66,265.92c-.51.16.27.72-.23.89-2.1.7-14.35,6-13.83,10.75.42,3.79,5.81,5.86,8.19,5.84l6,0-5.61,2.13a24.77,24.77,0,0,0-6.9,3.91c-2,1.66-3.55,3.84-3.6,6.2a5,5,0,0,0,3.48,5.25,15.13,15.13,0,0,0,7.58.24l7-1.33-6.13,3.52a23,23,0,0,0-4.68,3.54,9.5,9.5,0,0,0-2.83,4.69,4.51,4.51,0,0,0,1.63,4.47c1.39,1,3.45,1.25,5.43,1.3,4,.05,8.12-.77,12.22-1.38,2.05-.31,4.11-.64,6.19-.86a14.65,14.65,0,0,1,6.22.29c-2-.48-4.12,0-6.14.27s-4.05.86-6.07,1.34A66.85,66.85,0,0,1,360.12,319a11.63,11.63,0,0,1-6.56-1.35,6.4,6.4,0,0,1-2.65-6.5,11.6,11.6,0,0,1,3.34-5.91,25.2,25.2,0,0,1,5.16-4l.85,2.19a17.38,17.38,0,0,1-9-.2,7.22,7.22,0,0,1-3.9-3,8.24,8.24,0,0,1-1.14-4.72c.15-3.34,2.29-6,4.56-7.84a26.6,26.6,0,0,1,7.66-4.19l.38,2.08c-3-.08-9.31-1.73-10.7-7.53C347.48,270.16,362,266.42,364.66,265.92Z" style="fill: rgb(38, 50, 56); transform-origin: 365.497px 292.483px;" id="elijp4d22wmj" class="animable"></path><path d="M364.85,266.08a14.66,14.66,0,0,1-4.14-1.7,3.38,3.38,0,0,1-1.72-3,6.87,6.87,0,0,1,1.66-3.55c.91-1.15,1.94-2.32,3-3.47a11.82,11.82,0,0,0-4.21,2.37,6.9,6.9,0,0,0-2.54,4.57,5,5,0,0,0,.84,2.79,5.15,5.15,0,0,0,2.18,1.68A7.93,7.93,0,0,0,364.85,266.08Z" style="fill: rgb(38, 50, 56); transform-origin: 360.875px 260.347px;" id="el1ile7kpl46" class="animable"></path><path d="M283.76,282.43s-27.62-40.71-42.84-59.65-29.48-16.4-26.17,17.9,23.88,80.88,23.88,80.88Z" style="fill: rgb(189, 50, 212); transform-origin: 249.014px 266.29px;" id="elcnj1mf8x9xo" class="animable"></path><g id="elxh8rvx8f5wl"><path d="M283.76,282.43s-27.62-40.71-42.84-59.65-29.48-16.4-26.17,17.9,23.88,80.88,23.88,80.88Z" style="fill: rgb(255, 255, 255); opacity: 0.7; transform-origin: 249.014px 266.29px;" class="animable"></path></g><g id="el2q4x6edx4uu"><path d="M272.75,292l-34.11,29.58S218.07,275,214.75,240.67c-1.75-18,1.39-27.3,7-29.24Z" style="opacity: 0.1; transform-origin: 243.508px 266.505px;" class="animable"></path></g><polygon points="279.46 273.83 234.4 319 237.38 321.59 237.3 324.26 239.67 324.88 243.09 328.78 288.44 283.23 286.06 281.97 285.19 278.59 282.55 278.39 279.46 273.83" style="fill: rgb(189, 50, 212); transform-origin: 261.42px 301.305px;" id="eltzv1p3bcnos" class="animable"></polygon><g id="eltf6fg6hia1"><g style="opacity: 0.3; transform-origin: 261.42px 301.305px;" class="animable"><polygon points="279.46 273.83 234.4 319 237.38 321.59 237.3 324.26 239.67 324.88 243.09 328.78 288.44 283.23 286.06 281.97 285.19 278.59 282.55 278.39 279.46 273.83" style="fill: rgb(255, 255, 255); transform-origin: 261.42px 301.305px;" id="elh3cnkphdsn9" class="animable"></polygon></g></g><path d="M253.89,410.28l-161-10.83s39.92-145.56,100.32-192.19c7.47-5.76,28.3-2.91,37.48,4.19C252.19,228.09,254.34,409.79,253.89,410.28Z" style="fill: rgb(189, 50, 212); transform-origin: 173.415px 307.231px;" id="el0sgbbqnbhi2q" class="animable"></path><g id="el8cdkq45f2pm"><g style="opacity: 0.7; transform-origin: 173.415px 307.231px;" class="animable"><path d="M253.89,410.28l-161-10.83s39.92-145.56,100.32-192.19c7.47-5.76,28.3-2.91,37.48,4.19C252.19,228.09,254.34,409.79,253.89,410.28Z" style="fill: rgb(255, 255, 255); transform-origin: 173.415px 307.231px;" id="elwauqqxkvkwk" class="animable"></path></g></g><path d="M234.4,235.08c6.78,55.83,9.22,112.51,9.77,168.73-3.24-56.08-5.67-112.74-9.77-168.73Z" style="fill: rgb(38, 50, 56); transform-origin: 239.285px 319.445px;" id="elwu37xqkbakl" class="animable"></path><path d="M231.8,265.61c-3.33-.22-3.68,4.94-.35,5.17S235.13,265.84,231.8,265.61Z" style="fill: rgb(38, 50, 56); transform-origin: 231.625px 268.195px;" id="elhk0w4wgghbe" class="animable"></path><path d="M206,265.75c-3.32-.22-3.68,4.95-.35,5.17S209.3,266,206,265.75Z" style="fill: rgb(38, 50, 56); transform-origin: 205.821px 268.335px;" id="elujhr0pypll" class="animable"></path><path d="M232.41,302c-3.32-.22-3.68,4.94-.35,5.17S235.74,302.25,232.41,302Z" style="fill: rgb(38, 50, 56); transform-origin: 232.237px 304.585px;" id="elbc3jiqw15m9" class="animable"></path><path d="M206.59,302.17c-3.33-.22-3.68,4.95-.35,5.17S209.92,302.4,206.59,302.17Z" style="fill: rgb(38, 50, 56); transform-origin: 206.415px 304.755px;" id="elj5e4i7c5lj" class="animable"></path><path d="M233,338.45c-3.33-.22-3.68,4.94-.35,5.17S236.36,338.67,233,338.45Z" style="fill: rgb(38, 50, 56); transform-origin: 232.831px 341.035px;" id="el0deo62fys7un" class="animable"></path><path d="M207.2,338.59c-3.32-.22-3.68,5-.35,5.17S210.53,338.82,207.2,338.59Z" style="fill: rgb(38, 50, 56); transform-origin: 207.027px 341.174px;" id="elltmdz9ll5mm" class="animable"></path><path d="M233.64,374.87c-3.32-.23-3.68,4.94-.35,5.17S237,375.09,233.64,374.87Z" style="fill: rgb(38, 50, 56); transform-origin: 233.473px 377.455px;" id="elr2r4w7o9m3" class="animable"></path><path d="M207.81,375c-3.32-.22-3.67,4.94-.34,5.17S211.15,375.23,207.81,375Z" style="fill: rgb(38, 50, 56); transform-origin: 207.644px 377.585px;" id="el1ucs9e7i2lc" class="animable"></path><path d="M224.62,236c-9.16-.7-19.64-18.37-22.05-30.76-.16-.85,3.37-8.12,7.25-17.16,2.34-5.49,4.81-11.67,6.65-17.46C216.85,169.41,250,191,250,191s-7.44,11-10.59,21.13a12.69,12.69,0,0,0-.51,2.46c0,.11,0,.25-.08.41C238.12,219.76,233.47,236.65,224.62,236Z" style="fill: rgb(235, 148, 129); transform-origin: 226.282px 203.295px;" id="el4y13ma0yab4" class="animable"></path><path d="M235,214a22.19,22.19,0,0,0,3.79,1c0-.16.05-.29.08-.41a13,13,0,0,1,.51-2.46C242.57,202,250,191,250,191s-26.91-17.53-32.52-20.14C216.47,177.92,213.75,206.71,235,214Z" style="fill: rgb(38, 50, 56); transform-origin: 233.396px 192.93px;" id="elf7dikdfoq9l" class="animable"></path><path d="M223.23,126.5c-7.83,11.77-12.2,51.25-5.48,62.35,9.74,16.1,31.26,23.8,46.35,10.82,14.63-12.58,19.4-64.13,11.38-74.79C263.66,109.17,234.8,109.11,223.23,126.5Z" style="fill: rgb(235, 148, 129); transform-origin: 246.894px 159.748px;" id="elsf30rw72qhj" class="animable"></path><path d="M252.46,160.74c0-.1-.23.11-.24.22-.22,2.66-.92,5.68-3.43,6.28-.08,0-.08.16,0,.16C251.78,167.32,252.67,163.31,252.46,160.74Z" style="fill: rgb(38, 50, 56); transform-origin: 250.61px 164.057px;" id="el6iranqffyqk" class="animable"></path><path d="M250.4,157.69c-4.23-.81-5.56,7.72-1.63,8.48S254,158.38,250.4,157.69Z" style="fill: rgb(38, 50, 56); transform-origin: 249.47px 161.927px;" id="elusi56iavwxq" class="animable"></path><path d="M267.21,162.53c0-.1.19.15.17.26-.49,2.63-.62,5.73,1.64,7,.07,0,0,.17,0,.14C266.12,169.05,266.32,164.94,267.21,162.53Z" style="fill: rgb(38, 50, 56); transform-origin: 267.839px 166.22px;" id="elyq1e0o77rzs" class="animable"></path><path d="M270,160.13c4.3.34,3.31,8.92-.67,8.61S266.4,159.85,270,160.13Z" style="fill: rgb(38, 50, 56); transform-origin: 269.794px 164.436px;" id="elpsxm64o4q1g" class="animable"></path><path d="M247.64,153.27a34.56,34.56,0,0,0,3.49-.65c1.33-.27,2.42-.34,3.43-1.34a1.83,1.83,0,0,0,0-2.23c-1.1-1.33-2.82-1.42-4.43-1.16a6.6,6.6,0,0,0-4.23,2.25A2,2,0,0,0,247.64,153.27Z" style="fill: rgb(38, 50, 56); transform-origin: 250.244px 150.523px;" id="eljrddlbl6fjc" class="animable"></path><path d="M274,156.35c-1.15-.38-2.15-.92-3.26-1.41s-2.29-.87-3-2.07a1.82,1.82,0,0,1,.44-2.18c1.38-1.06,3.07-.76,4.59-.15a6.65,6.65,0,0,1,3.63,3.13A2,2,0,0,1,274,156.35Z" style="fill: rgb(38, 50, 56); transform-origin: 272.051px 153.207px;" id="elbgcrflu2beh" class="animable"></path><path d="M246.15,183.8c.56.7,1.08,1.63,2,1.83a6.8,6.8,0,0,0,2.93-.31c.09,0,.17.08.1.15a3.59,3.59,0,0,1-3.55,1,2.84,2.84,0,0,1-1.79-2.61C245.86,183.72,246.07,183.69,246.15,183.8Z" style="fill: rgb(38, 50, 56); transform-origin: 248.523px 185.164px;" id="elj86ygqvrpyl" class="animable"></path><path d="M249.94,176.2a9.11,9.11,0,0,0,5.52,4.78,11.4,11.4,0,0,0,3.24.55,2.66,2.66,0,0,0,.63,0c.19,0,.37,0,.59,0a.66.66,0,0,0,.61-.52v0a1.31,1.31,0,0,0,0-.28v0l0-.23c.32-2,.51-5.17.51-5.17.7.47,4.29,2.66,4.36,1.58.59-8.9,1.23-18.81-.07-27.79a.25.25,0,0,0-.49,0c-.9,8.53-.29,17.17-1.06,25.76a15.89,15.89,0,0,0-4.1-1.83c-.3.05-.26,6.06-.47,7l0,.1c-3.49,0-5.95-1.36-9-4.08C250,175.81,249.8,176,249.94,176.2Z" style="fill: rgb(38, 50, 56); transform-origin: 257.991px 165.234px;" id="elukkty43pd6b" class="animable"></path><path d="M257.62,180.35a10.83,10.83,0,0,1-4.71,2.78A4.83,4.83,0,0,1,250,183c-2.05-.82-1.86-2.78-1.26-4.39a11.26,11.26,0,0,1,1.27-2.43A14,14,0,0,0,257.62,180.35Z" style="fill: rgb(38, 50, 56); transform-origin: 252.977px 179.737px;" id="elp7h3nq6ck7g" class="animable"></path><path d="M252.91,183.13A4.83,4.83,0,0,1,250,183c-2.05-.82-1.86-2.78-1.26-4.39C250.94,179.08,253,180.9,252.91,183.13Z" style="fill: rgb(255, 151, 184); transform-origin: 250.623px 180.952px;" id="elgttnrtxbwru" class="animable"></path><path d="M216.43,160.78c5.43,2.43,9.31-1.94,11.29-5.25s4-25,7.51-29.93,9.87-6.94,14.33-4.86,9.57,9.1,13.05,9.3,5.43-7.13,7.82-6.77c5.28.78,8.9,14.62,9,20.54,0,0,3.85-24.73-21.06-30.76-24.3-5.88-34.76,9.85-38,17C214.11,143.61,216.43,160.78,216.43,160.78Z" style="fill: rgb(38, 50, 56); transform-origin: 247.827px 136.623px;" id="eljeno3xgka3k" class="animable"></path><path d="M222.58,161.23s-5.13-14.53-11.5-13-4.86,20.92.95,25.14a6.84,6.84,0,0,0,9.82-1.09Z" style="fill: rgb(235, 148, 129); transform-origin: 214.761px 161.54px;" id="eldc9jy11yii" class="animable"></path><path d="M211.65,153.76c-.1,0-.16.1-.08.16,4,3.1,5.26,8,5.72,12.82-.89-2.06-2.47-3.49-5.17-2.5-.14,0-.08.26,0,.27a4.23,4.23,0,0,1,4.08,2.66,20.84,20.84,0,0,1,1.13,4.2c.1.47.9.45.87-.06a.45.45,0,0,0,0-.11C220,165.43,217.71,156.07,211.65,153.76Z" style="fill: rgb(38, 50, 56); transform-origin: 215.165px 162.734px;" id="elbm6kz35483t" class="animable"></path><path d="M214.38,144.42c-.36-.35-28.71-59.3-31.09-64.69-1-2.4,16.53-33.53,37.36-39.23,15-4.12,39.14,5.9,43.41,8.79,5.07,3.44,13.94,74.46,13.94,74.46l-35.41,7.61Z" style="fill: rgb(189, 50, 212); transform-origin: 230.625px 91.9699px;" id="elf7mykmmyb7u" class="animable"></path><g id="elp594y0l0lck"><path d="M214.38,144.42c-.36-.35-28.71-59.3-31.09-64.69-1-2.4,16.53-33.53,37.36-39.23,15-4.12,39.14,5.9,43.41,8.79,5.07,3.44,13.94,74.46,13.94,74.46l-35.41,7.61Z" style="fill: rgb(255, 255, 255); opacity: 0.7; transform-origin: 230.625px 91.9699px;" class="animable"></path></g><g id="elt5mwwauxm9c"><g style="opacity: 0.1; transform-origin: 237.812px 115.794px;" class="animable"><path d="M218.55,135a8.32,8.32,0,0,1-1.43-2.53c-.41-.9-.83-1.81-1.27-2.7a40,40,0,0,0-3.13-5.11c-.91-1.29-2-2.73-3.6-3.2a3.51,3.51,0,0,0-2.08,0,3.57,3.57,0,0,0-1.25.54c-.28.25-.49.67-.75,1-.08.09.08.22.15.12a2,2,0,0,1,1.13-1,5,5,0,0,1,1.21-.21,3.5,3.5,0,0,1,2.39.86,14.86,14.86,0,0,1,3,4l2.71,4.41c.82,1.33,1.47,3.06,2.77,4C218.48,135.26,218.64,135.12,218.55,135Z" id="elzk2o0s5cpq" class="animable" style="transform-origin: 211.797px 128.253px;"></path><path d="M222.52,135.33q-2.62-5.57-5.27-11.11a54.07,54.07,0,0,1-4.49-11.61c0-.11-.21-.09-.19,0a55.57,55.57,0,0,0,3.53,11.92,78.21,78.21,0,0,0,6.23,10.88C222.39,135.54,222.57,135.44,222.52,135.33Z" id="eltf0iyvpjvj" class="animable" style="transform-origin: 217.549px 124.003px;"></path><path d="M234.16,127c-1.61-3.12-3.53-6.1-5.41-9.07a35.2,35.2,0,0,0-5.9-7.09.09.09,0,1,0-.12.14c2.17,2.28,3.57,5.14,5.22,7.8,1.8,2.91,3.59,5.86,5.66,8.59A.33.33,0,0,0,234.16,127Z" id="el94w2u1qglbc" class="animable" style="transform-origin: 228.456px 119.166px;"></path><path d="M248.09,96.72a3.59,3.59,0,0,0-5.3,1.59c-1.07,2.45-.52,5.54-.1,8.08a34.75,34.75,0,0,0,2.41,8,35.6,35.6,0,0,0,5,8,.09.09,0,1,0,.15-.1,41.58,41.58,0,0,1-5.51-13.66,39.93,39.93,0,0,1-.9-7.23c-.06-2,.94-5.39,3.67-4.51,2.56.82,3.33,4.08,5,5.88,0,0,.1,0,.06-.07C250.85,100.81,250.33,98.16,248.09,96.72Z" id="elc7ydneq3o6" class="animable" style="transform-origin: 247.374px 109.273px;"></path><path d="M267.74,98.4a18.45,18.45,0,0,0-1.85,11.88,32.78,32.78,0,0,0,1.75,6.6,35.18,35.18,0,0,0,2.79,6.49.09.09,0,0,0,.17-.07c-.49-2.15-1.47-4.2-2-6.35a44.46,44.46,0,0,1-1.23-6.57,39.9,39.9,0,0,1-.11-5.89,28.6,28.6,0,0,1,.94-5.88A.26.26,0,0,0,267.74,98.4Z" id="elr57z00i2wy" class="animable" style="transform-origin: 268.104px 110.863px;"></path><path d="M260.21,112.59a74.77,74.77,0,0,0-3.07-10.16.27.27,0,0,0-.52.17c.94,3.38,1.68,6.82,2.41,10.24s1.23,6.87,2.17,10.2c0,.1.18.06.18,0A40.18,40.18,0,0,0,260.21,112.59Z" id="els2jdlfjsxdh" class="animable" style="transform-origin: 258.997px 112.671px;"></path></g></g><path d="M278.72,116.24c-2.08-1.18-29.19-5-39.62-1-9.25,3.6-26.46,15.31-31.21,20.62-.79.87,3.94,12.69,6,14,1.19.77,20.52-11,30.91-15.35,8.86-3.74,29.61-2,34.83-1.27C280.4,133.39,280,116.94,278.72,116.24Z" style="fill: rgb(189, 50, 212); transform-origin: 243.912px 131.677px;" id="el1p2go92f7aw" class="animable"></path><g id="elcaont3326km"><g style="opacity: 0.3; transform-origin: 243.912px 131.677px;" class="animable"><path d="M278.72,116.24c-2.08-1.18-29.19-5-39.62-1-9.25,3.6-26.46,15.31-31.21,20.62-.79.87,3.94,12.69,6,14,1.19.77,20.52-11,30.91-15.35,8.86-3.74,29.61-2,34.83-1.27C280.4,133.39,280,116.94,278.72,116.24Z" style="fill: rgb(255, 255, 255); transform-origin: 243.912px 131.677px;" id="el9mj35nwdro" class="animable"></path></g></g><path d="M200.82,204c-.23-.73,4-12.3,4.26-12.76s24.24,28.32,25,30,1.32,10.1,1.32,10.1,1.69-9.3,2.36-10.19,6.15-6.57,6.3-6.63-4.07,22.6-13.72,22.35S208.79,228.5,200.82,204Z" style="fill: rgb(189, 50, 212); transform-origin: 220.437px 214.053px;" id="el71plvsa153m" class="animable"></path><g id="elhqt9ksejq9p"><path d="M200.82,204c-.23-.73,4-12.3,4.26-12.76s24.24,28.32,25,30,1.32,10.1,1.32,10.1,1.69-9.3,2.36-10.19,6.15-6.57,6.3-6.63-4.07,22.6-13.72,22.35S208.79,228.5,200.82,204Z" style="fill: rgb(255, 255, 255); opacity: 0.7; transform-origin: 220.437px 214.053px;" class="animable"></path></g><path d="M202.56,198.09c-.5-1-2.73,4.84-2.73,4.84s-3.77,1.68-3.77,2.22,12.17,20.41,18,25.61,16.3,7.92,16.3,7.92l1.17-3a84.67,84.67,0,0,1-14.41-14.14C212.25,215.19,203,199,202.56,198.09Z" style="fill: rgb(55, 71, 79); transform-origin: 213.795px 218.327px;" id="elt0a65qil3ij" class="animable"></path><path d="M239.29,217.34c.83-.22,1.35,3.3,1.55,3.64.3.53,1.81,2.19,1.76,2.8s-5.92,11.13-10,14.18l-1.05-2.27s4.16-8,5.21-10.59S239.29,217.34,239.29,217.34Z" style="fill: rgb(55, 71, 79); transform-origin: 237.076px 227.645px;" id="elkwih75ln5m" class="animable"></path><path d="M226.53,233.4c.4-.91,4.42-.57,4.9-.62s3.28-1.22,3.94-1,.61,4.86.35,5.69-2.63,3.5-3.41,3.55-3.84-.6-4.62-1.66S225.78,235.06,226.53,233.4Z" style="fill: rgb(55, 71, 79); transform-origin: 231.092px 236.388px;" id="el8kdxuw371by" class="animable"></path><path d="M229.41,237.65c-.4,1.46-3.79,31.16-3.15,31.61a18.23,18.23,0,0,1,2.38,1.54c.58.58-.13,4.11.77,4.5s5,2.12,6.17,1.86,7.39-6.68,7.71-7.64-9.06-32.89-9.06-32.89Z" style="fill: rgb(55, 71, 79); transform-origin: 234.739px 256.908px;" id="elfy9rebw0wet" class="animable"></path><path d="M181.19,254.34c12.34,59.33,33.5,88.84,41.8,91.82,13.53,4.85,72.75-16.76,89.51-35.31,5.44-6-27.88-52.47-40.24-45.42-3.51,2-30.61,19.77-31.95,19.12-4.28-2.08-13-20.81-31.32-47.39C182.56,198.78,176,229.59,181.19,254.34Z" style="fill: rgb(235, 148, 129); transform-origin: 246.322px 282.951px;" id="elm7osag54iwl" class="animable"></path><path d="M267.17,270.21s9.17-22.84,17.7-33.35c11.42-14.06,27.08-21.51,33.83-24.23,14.09-5.68,52.08-9.68,55.14,1.06,2.77,9.72-36.27,11.85-36.27,11.85s39.45-8.74,40.63,3.58-44.27,12.21-44.27,12.21,40.73-8.07,39.94,4.83c-.6,9.75-41.78,12-41.78,12s35.06-6.69,34.88,3.36c-.2,11.11-38.08,15.54-38.08,15.54-4.76,25.47-17.45,35.66-27.33,41.82C299.16,320.35,267.17,270.21,267.17,270.21Z" style="fill: rgb(235, 148, 129); transform-origin: 322.696px 262.933px;" id="eleyeuind7r4g" class="animable"></path><path d="M323.73,227.69c4.6-1.2,9.24-2.44,13.93-3.22s9.41-1.4,14.14-1.74c11.63-.84,19,.45,18.57.42-11-.71-27.85,1.83-32.54,2.61s-9.39,1.33-14.07,2.11C323.64,227.89,323.62,227.72,323.73,227.69Z" style="fill: rgb(38, 50, 56); transform-origin: 347.023px 225.159px;" id="elzdgn2cr128e" class="animable"></path><path d="M326.25,244.66c5.93-1.27,11.78-2.75,17.77-3.76s11.71-1.43,17.73-2c.46,0,.33.22-.13.28-6,.83-11.46,2.06-17.44,3s-12,1.57-17.91,2.69A.08.08,0,0,1,326.25,244.66Z" style="fill: rgb(38, 50, 56); transform-origin: 344.096px 241.885px;" id="elgl8u6sxwplg" class="animable"></path><path d="M325.79,259.62c9-2.41,18.37-3.16,27.61-3.67.46,0,.26.3-.21.35-9.2,1.05-16.43,1.8-27.32,3.63C325.7,260,325.6,259.67,325.79,259.62Z" style="fill: rgb(38, 50, 56); transform-origin: 339.674px 257.945px;" id="eljn8tlrp6hdr" class="animable"></path><path d="M239.27,281.2s-19.26-31.9-34.3-51-29.33-16.68-26.34,17.65S201.74,329,201.74,329Z" style="fill: rgb(189, 50, 212); transform-origin: 208.75px 273.637px;" id="el26oasga2oa5" class="animable"></path><g id="elobvjxbrdqjt"><path d="M239.27,281.2s-19.26-31.9-34.3-51-29.33-16.68-26.34,17.65S201.74,329,201.74,329Z" style="fill: rgb(255, 255, 255); opacity: 0.7; transform-origin: 208.75px 273.637px;" class="animable"></path></g><path d="M181.62,266.91c5.76,18,14.37,44.34,20.12,62.06a237.94,237.94,0,0,1-12-30.4,233.3,233.3,0,0,1-8.11-31.66Z" style="fill: rgb(38, 50, 56); transform-origin: 191.68px 297.94px;" id="elk5yzt5m01k" class="animable"></path><path d="M179.84,273.38a52.85,52.85,0,0,1,6.16,9.7,23.38,23.38,0,0,1-6.16-9.7Z" style="fill: rgb(38, 50, 56); transform-origin: 182.92px 278.23px;" id="el1bd7vds324f" class="animable"></path><path d="M213.58,241.82c5.39,5.5,9.69,11.93,13.82,18.38a166.2,166.2,0,0,1,11,20.19c-8.8-12.23-16.69-25.87-24.8-38.57Z" style="fill: rgb(38, 50, 56); transform-origin: 225.99px 261.105px;" id="elhmtlnq1giaj" class="animable"></path><path d="M218.05,243.72a12.64,12.64,0,0,1,2.76,4.49,15.14,15.14,0,0,1,1,5.16c-.4-.8-.72-1.6-1-2.4-.59-1.53-2.14-5.66-2.74-7.25Z" style="fill: rgb(38, 50, 56); transform-origin: 219.93px 248.545px;" id="ela47q7q7ec4a" class="animable"></path><polygon points="236.46 274.67 197.53 326.38 200.49 328.99 200.38 331.67 202.75 332.31 206.13 336.24 243.95 282.04 241.58 280.76 240.74 277.37 238.1 277.15 236.46 274.67" style="fill: rgb(189, 50, 212); transform-origin: 220.74px 305.455px;" id="elb7auepdo3sg" class="animable"></polygon><g id="eltzo0ybeu01"><g style="opacity: 0.3; transform-origin: 220.74px 305.455px;" class="animable"><polygon points="236.46 274.67 197.53 326.38 200.49 328.99 200.38 331.67 202.75 332.31 206.13 336.24 243.95 282.04 241.58 280.76 240.74 277.37 238.1 277.15 236.46 274.67" style="fill: rgb(255, 255, 255); transform-origin: 220.74px 305.455px;" id="el2rrl4zkg52s" class="animable"></polygon></g></g><path d="M166.73,479.09c.08.47.17.94.26,1.43-.08-.47-.17-1-.25-1.43Z" style="fill: rgb(235, 235, 235); transform-origin: 166.86px 479.805px;" id="el6nkpkr6pyqs" class="animable"></path></g><g id="freepik--Cake--inject-147" class="animable" style="transform-origin: 360.88px 414.19px;"><path d="M394,462.11V466h-66.3v-3.91S337,457.72,342,451.32c5.67-7.31,8.51-28.89,8.51-28.89h20.8s2.83,21.58,8.51,28.89C384.75,457.72,394,462.11,394,462.11Z" style="fill: rgb(69, 90, 100); transform-origin: 360.85px 444.215px;" id="eluky52enghj" class="animable"></path><path d="M373.58,434.88l-25.56.69c1.64-6.9,2.46-13.14,2.46-13.14h20.8S372.05,428.26,373.58,434.88Z" style="fill: rgb(55, 71, 79); transform-origin: 360.8px 429px;" id="elwvcmd0xkdjg" class="animable"></path><rect x="270.84" y="422.43" width="180.08" height="8.01" style="fill: rgb(69, 90, 100); transform-origin: 360.88px 426.435px;" id="elidzhkyx3rl" class="animable"></rect><path d="M270.84,426.91v6a5,5,0,0,0,10,0v-6Zm5,7.85a1.88,1.88,0,1,1,1.87-1.87A1.88,1.88,0,0,1,275.85,434.76Z" style="fill: rgb(69, 90, 100); transform-origin: 275.84px 432.41px;" id="elvytxb4mdpm" class="animable"></path><path d="M280.85,426.91v6a5,5,0,0,0,10,0v-6Zm5,7.85a1.88,1.88,0,1,1,1.87-1.87A1.87,1.87,0,0,1,285.85,434.76Z" style="fill: rgb(69, 90, 100); transform-origin: 285.85px 432.41px;" id="elsy1lpxzyw8" class="animable"></path><path d="M290.85,426.91v6a5,5,0,0,0,10,0v-6Zm5,7.85a1.88,1.88,0,1,1,1.88-1.87A1.87,1.87,0,0,1,295.85,434.76Z" style="fill: rgb(69, 90, 100); transform-origin: 295.85px 432.41px;" id="elizxrgp7ie8" class="animable"></path><path d="M300.86,426.91v6a5,5,0,0,0,10,0v-6Zm5,7.85a1.88,1.88,0,1,1,1.87-1.87A1.88,1.88,0,0,1,305.86,434.76Z" style="fill: rgb(69, 90, 100); transform-origin: 305.86px 432.41px;" id="elcry24myce9h" class="animable"></path><path d="M310.86,426.91v6a5,5,0,0,0,10,0v-6Zm5,7.85a1.88,1.88,0,1,1,1.88-1.87A1.87,1.87,0,0,1,315.86,434.76Z" style="fill: rgb(69, 90, 100); transform-origin: 315.86px 432.41px;" id="el6ubf8fvdka6" class="animable"></path><path d="M320.86,426.91v6a5,5,0,0,0,10,0v-6Zm5,7.85a1.88,1.88,0,1,1,1.87-1.87A1.88,1.88,0,0,1,325.87,434.76Z" style="fill: rgb(69, 90, 100); transform-origin: 325.86px 432.41px;" id="ele03dnmafdk" class="animable"></path><path d="M330.87,426.91v6a5,5,0,0,0,10,0v-6Zm5,7.85a1.88,1.88,0,1,1,1.87-1.87A1.87,1.87,0,0,1,335.87,434.76Z" style="fill: rgb(69, 90, 100); transform-origin: 335.87px 432.41px;" id="elv6dfiknlt2" class="animable"></path><path d="M340.87,426.91v6a5,5,0,0,0,10,0v-6Zm5,7.85a1.88,1.88,0,1,1,1.88-1.87A1.87,1.87,0,0,1,345.87,434.76Z" style="fill: rgb(69, 90, 100); transform-origin: 345.87px 432.41px;" id="elvlzlayn17jo" class="animable"></path><path d="M350.88,426.91v6a5,5,0,0,0,10,0v-6Zm5,7.85a1.88,1.88,0,1,1,1.87-1.87A1.87,1.87,0,0,1,355.88,434.76Z" style="fill: rgb(69, 90, 100); transform-origin: 355.88px 432.41px;" id="elmvxnakbez3m" class="animable"></path><path d="M360.88,426.91v6a5,5,0,0,0,10,0v-6Zm5,7.85a1.88,1.88,0,1,1,1.88-1.87A1.87,1.87,0,0,1,365.88,434.76Z" style="fill: rgb(69, 90, 100); transform-origin: 365.88px 432.41px;" id="eltb6jpbyved" class="animable"></path><path d="M370.88,426.91v6a5,5,0,0,0,10,0v-6Zm5,7.85a1.88,1.88,0,1,1,1.87-1.87A1.88,1.88,0,0,1,375.89,434.76Z" style="fill: rgb(69, 90, 100); transform-origin: 375.88px 432.41px;" id="elar5u6auf1sk" class="animable"></path><path d="M380.89,426.91v6a5,5,0,0,0,10,0v-6Zm5,7.85a1.88,1.88,0,1,1,1.87-1.87A1.87,1.87,0,0,1,385.89,434.76Z" style="fill: rgb(69, 90, 100); transform-origin: 385.89px 432.41px;" id="elxdjt10x53an" class="animable"></path><path d="M390.89,426.91v6a5,5,0,0,0,10,0v-6Zm5,7.85a1.88,1.88,0,1,1,1.88-1.87A1.87,1.87,0,0,1,395.89,434.76Z" style="fill: rgb(69, 90, 100); transform-origin: 395.89px 432.41px;" id="elff8t6d3je8o" class="animable"></path><path d="M400.9,426.91v6a5,5,0,0,0,10,0v-6Zm5,7.85a1.88,1.88,0,1,1,1.87-1.87A1.87,1.87,0,0,1,405.9,434.76Z" style="fill: rgb(69, 90, 100); transform-origin: 405.9px 432.41px;" id="elb7foh3sk337" class="animable"></path><path d="M410.9,426.91v6a5,5,0,0,0,10,0v-6Zm5,7.85a1.88,1.88,0,1,1,1.88-1.87A1.87,1.87,0,0,1,415.9,434.76Z" style="fill: rgb(69, 90, 100); transform-origin: 415.9px 432.41px;" id="elco6134g1x2i" class="animable"></path><path d="M420.9,426.91v6a5,5,0,0,0,10,0v-6Zm5,7.85a1.88,1.88,0,1,1,1.87-1.87A1.88,1.88,0,0,1,425.91,434.76Z" style="fill: rgb(69, 90, 100); transform-origin: 425.9px 432.41px;" id="el4x8fwt6l2de" class="animable"></path><path d="M430.91,426.91v6a5,5,0,0,0,10,0v-6Zm5,7.85a1.88,1.88,0,1,1,1.87-1.87A1.87,1.87,0,0,1,435.91,434.76Z" style="fill: rgb(69, 90, 100); transform-origin: 435.91px 432.41px;" id="el9xkbwudgzfd" class="animable"></path><path d="M440.91,426.91v6a5,5,0,0,0,10,0v-6Zm5,7.85a1.88,1.88,0,1,1,1.88-1.87A1.87,1.87,0,0,1,445.91,434.76Z" style="fill: rgb(69, 90, 100); transform-origin: 445.91px 432.41px;" id="elcgwcey97xep" class="animable"></path><path d="M308.32,368.68a6.3,6.3,0,1,1-6.3-6.3A6.3,6.3,0,0,1,308.32,368.68Z" style="fill: rgb(189, 50, 212); transform-origin: 302.02px 368.68px;" id="ell0p4719yfv" class="animable"></path><path d="M343.91,368.68a6.31,6.31,0,1,1-6.31-6.3A6.31,6.31,0,0,1,343.91,368.68Z" style="fill: rgb(189, 50, 212); transform-origin: 337.6px 368.69px;" id="elmgiuwn09mu" class="animable"></path><path d="M373.29,368.68a6.31,6.31,0,1,1-6.31-6.3A6.31,6.31,0,0,1,373.29,368.68Z" style="fill: rgb(189, 50, 212); transform-origin: 366.98px 368.69px;" id="el8xj4mskhptu" class="animable"></path><path d="M395.33,375a6.3,6.3,0,1,1,6.3-6.3A6.3,6.3,0,0,1,395.33,375Z" style="fill: rgb(189, 50, 212); transform-origin: 395.33px 368.7px;" id="elxxt60noucsi" class="animable"></path><path d="M421,375a6.3,6.3,0,1,1,6.3-6.3A6.3,6.3,0,0,1,421,375Z" style="fill: rgb(189, 50, 212); transform-origin: 421px 368.7px;" id="ela90swy6xfgs" class="animable"></path><rect x="288.72" y="371.88" width="143.15" height="50.55" style="fill: rgb(189, 50, 212); transform-origin: 360.295px 397.155px;" id="eltwqwspqac6l" class="animable"></rect><g id="el1bpk97g7u2w"><rect x="288.72" y="371.88" width="143.15" height="50.55" style="opacity: 0.5; transform-origin: 360.295px 397.155px;" class="animable"></rect></g><g id="elwoq5anv569n"><g style="opacity: 0.1; transform-origin: 360.254px 400.63px;" class="animable"><path d="M325.59,416.34a1,1,0,0,0,0-2A1,1,0,0,0,325.59,416.34Z" id="el7n7dn5fxepx" class="animable" style="transform-origin: 325.59px 415.34px;"></path><path d="M411.24,394.81a2.69,2.69,0,0,0,.16.29.44.44,0,0,0,.76,0,1.59,1.59,0,0,0,.15-.29C412.87,393.65,410.69,393.65,411.24,394.81Z" id="elg82ah7djrtt" class="animable" style="transform-origin: 411.777px 394.629px;"></path><path d="M317.15,410.35a.75.75,0,0,0,0-1.5A.75.75,0,0,0,317.15,410.35Z" id="elcrh9nqg2d9" class="animable" style="transform-origin: 317.15px 409.6px;"></path><path d="M405,386.42a.75.75,0,0,0,0-1.5A.75.75,0,0,0,405,386.42Z" id="ele86b4cv57u7" class="animable" style="transform-origin: 405px 385.67px;"></path><path d="M299.09,388.91a.75.75,0,0,0,0-1.5A.75.75,0,0,0,299.09,388.91Z" id="elaju13t2pgfk" class="animable" style="transform-origin: 299.09px 388.16px;"></path><path d="M351,393.63a.75.75,0,0,0,0-1.5A.75.75,0,0,0,351,393.63Z" id="elz5mjyui50ph" class="animable" style="transform-origin: 351px 392.88px;"></path><path d="M391.91,414.08a1,1,0,0,0,1.46,0,1.44,1.44,0,0,0,.36-1.42,1.14,1.14,0,0,0-2.18,0A1.44,1.44,0,0,0,391.91,414.08Z" id="elce5fqez9fd6" class="animable" style="transform-origin: 392.64px 413.125px;"></path><path d="M420.29,391.1a1,1,0,0,0,1.46,0,1.44,1.44,0,0,0,.36-1.42,1.14,1.14,0,0,0-2.18,0A1.44,1.44,0,0,0,420.29,391.1Z" id="elbfb8ezpj3os" class="animable" style="transform-origin: 421.02px 390.145px;"></path></g></g><rect x="288.72" y="395.08" width="143.15" height="4.14" style="fill: rgb(189, 50, 212); transform-origin: 360.295px 397.15px;" id="el05s8ntm8k78r" class="animable"></rect><path d="M287.8,368c-1.3,0-3.32,2-3.32,4.52v17.71a3.06,3.06,0,1,0,6.11,0V378.36a2.33,2.33,0,0,1,2.33-2.33h0a2.34,2.34,0,0,1,2.33,2.33v3.13a3.05,3.05,0,0,0,6.1,0v-2.92a2.54,2.54,0,0,1,2.54-2.54h8.38a2.54,2.54,0,0,1,2.53,2.54v1a3.06,3.06,0,1,0,6.11,0v-1.11a2.42,2.42,0,0,1,2.42-2.42h0a2.42,2.42,0,0,1,2.42,2.42v14.48a3.06,3.06,0,1,0,6.11,0V378.46a2.42,2.42,0,0,1,2.42-2.43h0a2.43,2.43,0,0,1,2.43,2.43v7a3.06,3.06,0,0,0,6.11,0v-6.06c0-1.85,2.7-3.35,4.55-3.35h5.79c1.85,0,3.35.91,3.35,2.76v.56a3.05,3.05,0,1,0,6.1,0v-1.18a2.14,2.14,0,0,1,2.14-2.14h.16a2.14,2.14,0,0,1,2.14,2.14v3.32a3.06,3.06,0,0,0,6.11,0v-1.87a3.58,3.58,0,0,1,3.58-3.59h4.69a3.59,3.59,0,0,1,3.59,3.59v3.91a3.05,3.05,0,1,0,6.1,0v-5.45a2.05,2.05,0,0,1,2.05-2.05H399a2.05,2.05,0,0,1,2,2.05v3.11a3.06,3.06,0,1,0,6.11,0v-2.64a2.51,2.51,0,0,1,2.51-2.52H426.1a2.52,2.52,0,0,1,2.51,2.52v6.65a3.06,3.06,0,1,0,6.11,0V372.48c0-2.5-2-4.52-5.73-4.52Z" style="fill: rgb(189, 50, 212); transform-origin: 359.6px 382.068px;" id="elwe564leodnb" class="animable"></path><g id="el1vkprcro514"><g style="opacity: 0.7; transform-origin: 359.6px 382.068px;" class="animable"><path d="M287.8,368c-1.3,0-3.32,2-3.32,4.52v17.71a3.06,3.06,0,1,0,6.11,0V378.36a2.33,2.33,0,0,1,2.33-2.33h0a2.34,2.34,0,0,1,2.33,2.33v3.13a3.05,3.05,0,0,0,6.1,0v-2.92a2.54,2.54,0,0,1,2.54-2.54h8.38a2.54,2.54,0,0,1,2.53,2.54v1a3.06,3.06,0,1,0,6.11,0v-1.11a2.42,2.42,0,0,1,2.42-2.42h0a2.42,2.42,0,0,1,2.42,2.42v14.48a3.06,3.06,0,1,0,6.11,0V378.46a2.42,2.42,0,0,1,2.42-2.43h0a2.43,2.43,0,0,1,2.43,2.43v7a3.06,3.06,0,0,0,6.11,0v-6.06c0-1.85,2.7-3.35,4.55-3.35h5.79c1.85,0,3.35.91,3.35,2.76v.56a3.05,3.05,0,1,0,6.1,0v-1.18a2.14,2.14,0,0,1,2.14-2.14h.16a2.14,2.14,0,0,1,2.14,2.14v3.32a3.06,3.06,0,0,0,6.11,0v-1.87a3.58,3.58,0,0,1,3.58-3.59h4.69a3.59,3.59,0,0,1,3.59,3.59v3.91a3.05,3.05,0,1,0,6.1,0v-5.45a2.05,2.05,0,0,1,2.05-2.05H399a2.05,2.05,0,0,1,2,2.05v3.11a3.06,3.06,0,1,0,6.11,0v-2.64a2.51,2.51,0,0,1,2.51-2.52H426.1a2.52,2.52,0,0,1,2.51,2.52v6.65a3.06,3.06,0,1,0,6.11,0V372.48c0-2.5-2-4.52-5.73-4.52Z" style="fill: rgb(255, 255, 255); transform-origin: 359.6px 382.068px;" id="elj1uz0y3mybr" class="animable"></path></g></g></g><g id="freepik--Tools--inject-147" class="animable" style="transform-origin: 90.0923px 387.165px;"><path d="M125.76,312.32a11.17,11.17,0,0,1,6.72,6c3.16,6.08,3.24,15.24.22,23.9-2,5.86-6.9,12.77-11.59,19.46s-9.24,13.2-10.63,18.1L94.07,437.7l-3.55-1,.39-1.35,2.19.62,16-56.59c1.45-5.13,6-11.63,10.83-18.52,4.63-6.61,9.42-13.44,11.41-19.12,2.9-8.3,2.85-17-.14-22.78a9.83,9.83,0,0,0-5.85-5.28Z" style="fill: rgb(166, 166, 166); transform-origin: 112.714px 375.01px;" id="el6fi6q8bv3x" class="animable"></path><path d="M122.46,312a9.35,9.35,0,0,1,3.3.32l-.38,1.35a9.83,9.83,0,0,0-7.75,1.43c-5.56,3.32-10.19,10.73-12.07,19.32-1.29,5.87-.8,14.21-.32,22.27.49,8.39,1,16.31-.49,21.44l-16,56.59,2.19.62-.39,1.35-3.54-1,16.41-57.94c1.39-4.9.93-12.71.44-21s-1-16.59.35-22.65c2-9,6.84-16.71,12.72-20.23A12.75,12.75,0,0,1,122.46,312Z" style="fill: rgb(166, 166, 166); transform-origin: 106.385px 374.329px;" id="elqdoj6u526ve" class="animable"></path><path d="M125.76,312.32a5.53,5.53,0,0,1,3.29,2.95c2.7,5.08,2.27,15.36-1.06,25.58-1.92,5.86-5.83,13-9.61,20s-7.49,13.73-8.89,18.67L93.07,437.41l-2.55-.72.39-1.35,1.19.33,16-56.58c1.44-5.09,5.12-11.83,9-19,3.75-6.87,7.63-14,9.51-19.72,3.17-9.73,3.65-19.79,1.15-24.47a4.18,4.18,0,0,0-2.42-2.27Z" style="fill: rgb(166, 166, 166); transform-origin: 110.668px 374.865px;" id="elqrpp4atl8rc" class="animable"></path><path d="M124.19,312.17a4.14,4.14,0,0,1,1.57.15l.68.19L91.2,436.89,88,436,104.39,378c1.4-4.94,1.8-12.52,2.22-20.55s.84-16,2.29-22c2.52-10.45,7.55-19.43,12.51-22.33A6.43,6.43,0,0,1,124.19,312.17Zm.48,1.39a4.86,4.86,0,0,0-2.55.77c-4.58,2.68-9.45,11.49-11.85,21.44-1.42,5.87-1.84,14-2.25,21.78-.43,8.11-.83,15.77-2.28,20.87L89.71,435l.52.14Z" style="fill: rgb(166, 166, 166); transform-origin: 107.22px 374.52px;" id="ely8xklrzhaq" class="animable"></path><polygon points="95.6 440.98 108.56 395.25 96.91 391.95 83.88 437.95 95.6 440.98" style="fill: rgb(55, 71, 79); transform-origin: 96.22px 416.465px;" id="elve17befmklr" class="animable"></polygon><path d="M65.68,365.89c14-2.39,15.12-16,12.94-24.47S66,323.78,57.79,325.18,44.6,338.44,45.35,347.12,51.74,368.28,65.68,365.89Z" style="fill: rgb(199, 199, 199); transform-origin: 62.3814px 345.613px;" id="elaat6pc810xf" class="animable"></path><polygon points="61.43 363.8 68.46 362.49 88.06 453.88 76.24 456.09 61.43 363.8" style="fill: rgb(199, 199, 199); transform-origin: 74.745px 409.29px;" id="el0xhrgyq3c2kd" class="animable"></polygon><g id="elr04oi2xvo4r"><rect x="86.74" y="344.28" width="5.48" height="56.5" style="fill: rgb(166, 166, 166); transform-origin: 89.48px 372.53px; transform: rotate(178.81deg);" class="animable"></rect></g><path d="M79,345.48l20.37-.89S97.45,309.5,97,308.68s-14.18-1.2-17,9.29S79,345.48,79,345.48Z" style="fill: rgb(55, 71, 79); transform-origin: 88.8961px 326.895px;" id="elbd9nr8i4lmj" class="animable"></path><polygon points="95.31 430.36 94.97 388.77 84.38 388.85 84.72 430.69 95.31 430.36" style="fill: rgb(55, 71, 79); transform-origin: 89.845px 409.73px;" id="eljrwu8ss5u1p" class="animable"></polygon><polygon points="63.48 400.76 107.28 400.76 102.58 466.02 67.24 466.02 63.48 400.76" style="fill: rgb(189, 50, 212); transform-origin: 85.38px 433.39px;" id="elqcoddzro6st" class="animable"></polygon></g><defs>     <filter id="active" height="200%">         <feMorphology in="SourceAlpha" result="DILATED" operator="dilate" radius="2"></feMorphology>                <feFlood flood-color="#32DFEC" flood-opacity="1" result="PINK"></feFlood>        <feComposite in="PINK" in2="DILATED" operator="in" result="OUTLINE"></feComposite>        <feMerge>            <feMergeNode in="OUTLINE"></feMergeNode>            <feMergeNode in="SourceGraphic"></feMergeNode>        </feMerge>    </filter>    <filter id="hover" height="200%">        <feMorphology in="SourceAlpha" result="DILATED" operator="dilate" radius="2"></feMorphology>                <feFlood flood-color="#ff0000" flood-opacity="0.5" result="PINK"></feFlood>        <feComposite in="PINK" in2="DILATED" operator="in" result="OUTLINE"></feComposite>        <feMerge>            <feMergeNode in="OUTLINE"></feMergeNode>            <feMergeNode in="SourceGraphic"></feMergeNode>        </feMerge>            <feColorMatrix type="matrix" values="0   0   0   0   0                0   1   0   0   0                0   0   0   0   0                0   0   0   1   0 "></feColorMatrix>    </filter></defs></svg>